<svg width="95" height="95" fill="none" xmlns="http://www.w3.org/2000/svg"><path fill-rule="evenodd" clip-rule="evenodd" d="M29.917 9.194C29.917 3.782 35.085 0 40.632 0s10.715 3.782 10.715 9.194v7.734c0 5.412-5.168 9.194-10.715 9.194s-10.715-3.782-10.715-9.194V9.194Zm10.715-4.876c-3.86 0-6.317 2.517-6.317 4.876v7.734c0 2.358 2.458 4.876 6.317 4.876 3.86 0 6.317-2.517 6.317-4.876V9.194c0-2.359-2.457-4.876-6.317-4.876ZM60.26 9.194C60.26 3.782 65.427 0 70.974 0S81.69 3.782 81.69 9.194v7.734c0 5.412-5.169 9.194-10.715 9.194-5.547 0-10.716-3.782-10.716-9.194V9.194Zm10.715-4.876c-3.86 0-6.316 2.517-6.316 4.876v7.734c0 2.358 2.457 4.876 6.317 4.876 3.86 0 6.316-2.517 6.316-4.876V9.194c0-2.359-2.457-4.876-6.317-4.876ZM2.2 0c1.215 0 2.2.967 2.2 2.16v21.803c0 1.192-.985 2.159-2.2 2.159-1.214 0-2.199-.967-2.199-2.16V2.16C0 .967.985 0 2.2 0ZM18.51 0c1.215 0 2.2.967 2.2 2.16v21.803c0 1.192-.985 2.159-2.2 2.159-1.214 0-2.199-.967-2.199-2.16V2.16c0-1.192.985-2.159 2.2-2.159ZM92.8 0c1.215 0 2.2.967 2.2 2.16v21.803c0 1.192-.985 2.159-2.2 2.159-1.214 0-2.198-.967-2.198-2.16V2.16C90.602.967 91.585 0 92.8 0ZM0 43.633c0-5.412 5.168-9.194 10.715-9.194s10.716 3.782 10.716 9.194v7.734c0 5.412-5.169 9.194-10.716 9.194S0 56.779 0 51.367v-7.734Zm10.715-4.876c-3.86 0-6.317 2.518-6.317 4.876v7.734c0 2.358 2.458 4.876 6.317 4.876 3.86 0 6.317-2.518 6.317-4.876v-7.734c0-2.358-2.457-4.876-6.317-4.876Zm35.81 4.876c0-5.412 5.169-9.194 10.716-9.194s10.715 3.782 10.715 9.194v7.734c0 5.412-5.168 9.194-10.715 9.194s-10.715-3.782-10.715-9.194v-7.734Zm10.716-4.876c-3.86 0-6.317 2.518-6.317 4.876v7.734c0 2.358 2.457 4.876 6.317 4.876 3.86 0 6.317-2.518 6.317-4.876v-7.734c0-2.358-2.458-4.876-6.317-4.876ZM34.577 34.44c1.215 0 2.2.967 2.2 2.16v21.803c0 1.192-.985 2.159-2.2 2.159-1.215 0-2.2-.967-2.2-2.16V36.599c0-1.192.985-2.159 2.2-2.159Zm43.893 0c1.215 0 2.2.967 2.2 2.16v21.803c0 1.192-.985 2.159-2.2 2.159-1.215 0-2.2-.967-2.2-2.16V36.599c0-1.192.986-2.159 2.2-2.159Zm14.33 0c1.215 0 2.2.967 2.2 2.16v21.803c0 1.192-.985 2.159-2.2 2.159-1.214 0-2.198-.967-2.198-2.16V36.599c0-1.192.984-2.159 2.199-2.159ZM12.886 78.072c0-5.412 5.168-9.194 10.715-9.194s10.715 3.782 10.715 9.194v7.734C34.315 91.218 29.147 95 23.6 95s-10.715-3.782-10.715-9.194v-7.734ZM23.6 73.196c-3.86 0-6.317 2.517-6.317 4.876v7.734c0 2.359 2.457 4.876 6.317 4.876 3.86 0 6.317-2.517 6.317-4.876v-7.734c0-2.359-2.457-4.876-6.317-4.876Zm19.627 4.876c0-5.412 5.168-9.194 10.715-9.194s10.716 3.782 10.716 9.194v7.734c0 5.412-5.169 9.194-10.716 9.194s-10.715-3.782-10.715-9.194v-7.734Zm10.715-4.876c-3.86 0-6.316 2.517-6.316 4.876v7.734c0 2.359 2.457 4.876 6.316 4.876 3.86 0 6.317-2.517 6.317-4.876v-7.734c0-2.359-2.457-4.876-6.317-4.876Zm19.627 4.876c0-5.412 5.169-9.194 10.716-9.194S95 72.66 95 78.072v7.734C95 91.218 89.832 95 84.285 95s-10.716-3.782-10.716-9.194v-7.734Zm10.716-4.876c-3.86 0-6.317 2.517-6.317 4.876v7.734c0 2.359 2.457 4.876 6.317 4.876 3.86 0 6.317-2.517 6.317-4.876v-7.734c0-2.359-2.458-4.876-6.317-4.876ZM2.199 68.878c1.215 0 2.2.967 2.2 2.16V92.84c0 1.192-.985 2.159-2.2 2.159C.985 95 0 94.033 0 92.84V71.038c0-1.192.985-2.159 2.2-2.159Z" fill="#12ECAB"/></svg>