<svg width="95" height="95" fill="none" xmlns="http://www.w3.org/2000/svg"><path fill-rule="evenodd" clip-rule="evenodd" d="M44.341.628a8.254 8.254 0 1 1 5.224 15.618v4.174a2.065 2.065 0 1 1-4.13 0v-4.174A8.254 8.254 0 0 1 44.34.628Zm3.964 3.582a4.124 4.124 0 1 0-1.61 8.09 4.124 4.124 0 0 0 1.61-8.09Zm25.335 7.443a8.254 8.254 0 1 1-2.58 15.208l-2.951 2.95a2.065 2.065 0 0 1-2.92-2.92l2.95-2.95a8.257 8.257 0 0 1 1.275-10.029 8.254 8.254 0 0 1 4.226-2.259Zm3.189 4.286a4.125 4.125 0 1 0-3.157 7.622 4.125 4.125 0 0 0 3.157-7.622Zm-61.666-3.053A8.254 8.254 0 0 1 26.861 23.94l2.95 2.951a2.065 2.065 0 0 1-2.92 2.92l-2.95-2.95a8.257 8.257 0 0 1-10.029-1.275 8.254 8.254 0 0 1 1.251-12.7Zm4.586 2.74a4.125 4.125 0 1 0 0 8.248 4.125 4.125 0 0 0 0-8.249ZM47.5 31.715a15.784 15.784 0 1 0 0 31.568 15.784 15.784 0 0 0 0-31.569Zm-11.064-.775a19.915 19.915 0 1 1 22.128 33.117 19.915 19.915 0 0 1-22.128-33.117ZM6.644 39.404a8.254 8.254 0 0 1 9.602 6.03h4.174a2.065 2.065 0 1 1 0 4.131h-4.174a8.254 8.254 0 1 1-9.602-10.16Zm3.189 4.286a4.124 4.124 0 1 0-3.157 7.62 4.124 4.124 0 0 0 3.157-7.62Zm71.076-2.027a8.255 8.255 0 1 1-2.155 7.902H74.58a2.065 2.065 0 1 1 0-4.13h4.174a8.254 8.254 0 0 1 2.155-3.772Zm5.837 1.713a4.124 4.124 0 1 0 0 8.248 4.124 4.124 0 0 0 0-8.248ZM29.812 65.188a2.065 2.065 0 0 1 0 2.92L26.86 71.06a8.25 8.25 0 0 1 .514 7.35 8.256 8.256 0 0 1-15.88-3.16 8.255 8.255 0 0 1 12.445-7.11l2.951-2.952a2.065 2.065 0 0 1 2.92 0Zm35.376 0a2.065 2.065 0 0 1 2.92 0l2.952 2.951a8.271 8.271 0 0 1 4.19-1.143 8.255 8.255 0 1 1-7.11 4.064l-2.952-2.951a2.065 2.065 0 0 1 0-2.92Zm-44.634 6.018a4.124 4.124 0 1 0-1.61 8.09 4.124 4.124 0 0 0 1.61-8.09Zm54.697-.08a4.123 4.123 0 1 0 0 8.247 4.123 4.123 0 0 0 0-8.246ZM47.5 72.516c1.14 0 2.065.924 2.065 2.065v4.174a8.254 8.254 0 1 1-4.13 0V74.58c0-1.14.924-2.065 2.065-2.065Zm0 10.106a4.124 4.124 0 1 0 0 8.25 4.124 4.124 0 0 0 0-8.25Z" fill="#12ECAB"/></svg>