<svg width="202" height="202" fill="none" xmlns="http://www.w3.org/2000/svg"><path d="M100.507 15.738c-46.817 0-84.768 37.953-84.768 84.768s37.951 84.767 84.768 84.767c46.813 0 84.766-37.952 84.766-84.767s-37.953-84.768-84.766-84.768Z" fill="#E0E0E0" fill-opacity=".05"/><path d="M100.507 0C45.087 0 0 45.087 0 100.506s45.087 100.505 100.507 100.505c55.419 0 100.504-45.086 100.504-100.505C201.011 45.086 155.926 0 100.507 0Zm0 197.791c-53.644 0-97.285-43.642-97.285-97.285 0-53.644 43.641-97.286 97.285-97.286 53.643 0 97.283 43.642 97.283 97.286 0 53.643-43.64 97.285-97.283 97.285Z" fill="#E0E0E0" fill-opacity=".05"/><path d="M54.962 53.782c-3.666-.88-6.528-3.622-7.448-7.133l-.157-.6-.156.6c-.92 3.51-3.783 6.253-7.45 7.133l-.624.15.624.15c3.668.88 6.53 3.621 7.45 7.133l.156.6.157-.6c.92-3.511 3.782-6.253 7.448-7.133l.627-.15-.627-.15Z" fill="#3D5863"/><path d="M173.438 134.377c-3.098-.744-5.516-3.062-6.295-6.028l-.132-.507-.132.507c-.777 2.966-3.196 5.284-6.296 6.028l-.527.127.527.126c3.099.743 5.519 3.061 6.296 6.028l.132.507.132-.507c.779-2.967 3.197-5.285 6.295-6.028l.53-.126-.53-.127Z" fill="#01FFB3"/><path d="M82.034 143.465c-3.107-.746-5.532-3.071-6.313-6.046l-.132-.509-.132.509c-.78 2.975-3.207 5.3-6.314 6.046l-.53.127.53.127c3.107.746 5.534 3.069 6.314 6.045l.132.509.132-.509c.781-2.976 3.207-5.3 6.313-6.045l.532-.127-.532-.127ZM101.891 155.091c-5.283-1.269-9.406-5.221-10.734-10.279l-.226-.865-.224.865c-1.325 5.058-5.451 9.01-10.735 10.279l-.9.215.9.216c5.284 1.267 9.41 5.219 10.735 10.278l.224.864.226-.864c1.328-5.059 5.451-9.011 10.734-10.278l.903-.216-.903-.215Z" fill="#319BE0"/><path d="M40.182 65.646c-1.922-.461-3.422-1.9-3.905-3.74l-.083-.315-.08.315c-.483 1.84-1.984 3.278-3.907 3.74l-.327.079.327.078c1.923.461 3.424 1.899 3.906 3.74l.081.314.083-.314c.483-1.841 1.983-3.279 3.905-3.74l.329-.078-.329-.079Z" fill="#3D5863"/><path d="M63.453 70.145H44.936a6.634 6.634 0 0 0-6.634 6.633v44.742a8.709 8.709 0 0 1 11.435 8.271c0 .095-.004.19-.008.284h13.724a6.633 6.633 0 0 0 6.633-6.634V76.778a6.633 6.633 0 0 0-6.633-6.633Z" fill="#319BE0"/><path d="M63.04 81.586H45.348v4.73H63.04v-4.73ZM63.04 92.425H45.348v4.73H63.04v-4.73ZM63.04 103.066H45.348v4.73H63.04v-4.73ZM63.04 113.906H45.348v4.729H63.04v-4.729ZM54.194 77.645a2.168 2.168 0 1 0 0-4.336 2.168 2.168 0 0 0 0 4.336Z" fill="#fff"/><path d="M114.666 79.56a8.71 8.71 0 0 1-8.678-9.415h-14.74a6.634 6.634 0 0 0-6.635 6.633v46.663a6.634 6.634 0 0 0 6.634 6.634h18.518a6.633 6.633 0 0 0 6.632-6.634V79.387a8.723 8.723 0 0 1-1.731.172Z" fill="#319BE0"/><path d="M109.352 81.586H91.659v4.73h17.693v-4.73ZM109.352 92.425H91.659v4.73h17.693v-4.73ZM109.352 103.066H91.659v4.73h17.693v-4.73ZM109.352 113.906H91.659v4.729h17.693v-4.729ZM100.505 77.645a2.167 2.167 0 1 0 0-4.335 2.167 2.167 0 0 0 0 4.335ZM100.505 126.913a2.168 2.168 0 1 0-.001-4.335 2.168 2.168 0 0 0 .001 4.335Z" fill="#fff"/><path d="M161.371 79.559a8.709 8.709 0 0 1-8.678-9.414h-15.135a6.634 6.634 0 0 0-6.634 6.633v46.663a6.634 6.634 0 0 0 6.634 6.634h18.517a6.634 6.634 0 0 0 6.633-6.634V79.457a8.752 8.752 0 0 1-1.337.102Z" fill="#319BE0"/><path d="M155.663 81.586h-17.692v4.73h17.692v-4.73ZM155.663 92.425h-17.692v4.73h17.692v-4.73ZM155.663 103.066h-17.692v4.73h17.692v-4.73ZM155.663 113.906h-17.692v4.729h17.692v-4.729ZM146.817 126.913a2.168 2.168 0 1 0 0-4.337 2.168 2.168 0 0 0 0 4.337Z" fill="#fff"/><path d="M102.481 66.272a26.067 26.067 0 0 0-1.005-2.353 1.971 1.971 0 0 0-3.545 1.725c.317.65.604 1.322.853 1.996a1.971 1.971 0 0 0 3.697-1.368ZM57.097 63.01a1.971 1.971 0 0 0-2.635.91 26.038 26.038 0 0 0-1.005 2.352 1.97 1.97 0 0 0 3.696 1.368c.25-.674.536-1.345.853-1.996a1.97 1.97 0 0 0-.91-2.634ZM97.006 57.443a26.349 26.349 0 0 0-3.538-3.14 1.97 1.97 0 1 0-2.34 3.172 22.386 22.386 0 0 1 3.007 2.668c.387.412.911.62 1.436.62a1.971 1.971 0 0 0 1.435-3.321ZM65.24 54.712a1.971 1.971 0 0 0-2.756-.418 26.381 26.381 0 0 0-3.54 3.138 1.97 1.97 0 1 0 2.87 2.702c.919-.976 1.93-1.873 3.009-2.667a1.972 1.972 0 0 0 .417-2.755ZM86.505 50.638a26.041 26.041 0 0 0-4.596-1.13 1.972 1.972 0 0 0-.59 3.896c1.324.2 2.636.523 3.899.96a1.968 1.968 0 0 0 2.506-1.22 1.97 1.97 0 0 0-1.22-2.506ZM77.83 50.173a1.97 1.97 0 0 0-.936-1.183l-4.856-2.703a1.97 1.97 0 1 0-1.917 3.444l.806.449c-.497.139-.992.287-1.479.455a1.97 1.97 0 0 0 1.286 3.726c.365-.126.735-.24 1.107-.347l-.331.595a1.97 1.97 0 1 0 3.444 1.918l2.703-4.855c.254-.458.316-.997.173-1.5ZM146.516 131.814a1.972 1.972 0 0 0-2.532 1.164 22.12 22.12 0 0 1-.853 1.996 1.971 1.971 0 0 0 3.544 1.725 25.99 25.99 0 0 0 1.006-2.353 1.972 1.972 0 0 0-1.165-2.532ZM103.206 134.974a21.838 21.838 0 0 1-.853-1.996 1.971 1.971 0 0 0-3.697 1.368c.294.795.632 1.587 1.006 2.353a1.972 1.972 0 1 0 3.544-1.725ZM110.021 143.151a22.537 22.537 0 0 1-3.009-2.667 1.97 1.97 0 1 0-2.868 2.702 26.233 26.233 0 0 0 3.539 3.138 1.967 1.967 0 0 0 2.755-.417 1.971 1.971 0 0 0-.417-2.756ZM132.924 147.474a1.971 1.971 0 0 0-2.506-1.22 22.075 22.075 0 0 1-3.899.96 1.97 1.97 0 0 0 .591 3.896 25.94 25.94 0 0 0 4.595-1.131 1.969 1.969 0 0 0 1.219-2.505ZM142.12 140.389a1.97 1.97 0 0 0-2.785.086 22.405 22.405 0 0 1-3.007 2.668 1.971 1.971 0 0 0 2.34 3.172 26.308 26.308 0 0 0 3.538-3.14 1.972 1.972 0 0 0-.086-2.786ZM122.856 148.947l-2.704-4.855a1.97 1.97 0 1 0-3.443 1.918l.331.594c-.372-.107-.742-.22-1.107-.346a1.97 1.97 0 1 0-1.285 3.726c.487.168.981.316 1.478.454l-.806.449a1.973 1.973 0 0 0 .961 3.693c.324 0 .653-.08.957-.249l4.855-2.703a1.974 1.974 0 0 0 .763-2.681Z" fill="#3D5863"/><path d="M161.372 62.142a8.709 8.709 0 1 0 0 17.417 8.709 8.709 0 0 0 0-17.417Z" fill="#01FFB3"/><path d="M166.492 66.315a1.46 1.46 0 0 0-2.055.177l-4.605 5.477-1.882-1.82a1.46 1.46 0 0 0-2.028 2.097l3.006 2.907a1.458 1.458 0 0 0 2.13-.11l5.612-6.673a1.46 1.46 0 0 0-.178-2.055Z" fill="#3D5863"/><path d="M114.667 62.142a8.709 8.709 0 1 0 0 17.417 8.709 8.709 0 0 0 0-17.417Z" fill="#01FFB3"/><path d="M119.787 66.315a1.46 1.46 0 0 0-2.055.177l-4.605 5.477-1.882-1.82a1.46 1.46 0 0 0-2.028 2.097l3.006 2.907a1.458 1.458 0 0 0 2.13-.11l5.611-6.673a1.46 1.46 0 0 0-.177-2.055Z" fill="#3D5863"/><path d="M41.027 121.082a8.709 8.709 0 1 0 0 17.417 8.709 8.709 0 1 0 0-17.417Z" fill="#01FFB3"/><path d="M46.148 125.255a1.459 1.459 0 0 0-2.055.178l-4.606 5.477-1.882-1.82a1.459 1.459 0 0 0-2.028 2.096l3.006 2.908a1.461 1.461 0 0 0 2.13-.11l5.612-6.674a1.458 1.458 0 0 0-.177-2.055Z" fill="#3D5863"/></svg>