<svg width="202" height="202" fill="none" xmlns="http://www.w3.org/2000/svg"><path d="M100.507 15.737c-46.817 0-84.768 37.953-84.768 84.769 0 46.814 37.951 84.766 84.768 84.766 46.813 0 84.766-37.952 84.766-84.766 0-46.816-37.953-84.77-84.766-84.77Z" fill="#E0E0E0" fill-opacity=".05"/><path d="M100.507 0C45.087 0 0 45.087 0 100.506s45.087 100.505 100.507 100.505c55.419 0 100.504-45.086 100.504-100.505C201.011 45.086 155.926 0 100.507 0Zm0 197.791c-53.644 0-97.286-43.642-97.286-97.285 0-53.645 43.642-97.286 97.286-97.286 53.643 0 97.283 43.642 97.283 97.286 0 53.643-43.64 97.285-97.283 97.285Z" fill="#E0E0E0" fill-opacity=".05"/><path d="M159.24 59.062a11.764 11.764 0 0 1-8.554-8.554l-.181-.718-.18.718a11.767 11.767 0 0 1-8.557 8.554l-.716.181.716.18a11.768 11.768 0 0 1 8.557 8.555l.18.718.181-.718a11.764 11.764 0 0 1 8.554-8.555l.719-.18-.719-.18Z" fill="#01FFB3"/><path d="M60.895 135.2a15.38 15.38 0 0 1-11.181-11.181l-.237-.938-.236.938A15.38 15.38 0 0 1 38.057 135.2l-.937.237.937.235a15.379 15.379 0 0 1 11.184 11.183l.236.939.237-.939a15.378 15.378 0 0 1 11.181-11.183l.94-.235-.94-.237Z" fill="#3D5863"/><path d="M59.293 69.57a13.105 13.105 0 0 1-9.527-9.527l-.202-.799-.2.8a13.105 13.105 0 0 1-9.53 9.526l-.798.201.798.2a13.106 13.106 0 0 1 9.53 9.53l.2.799.202-.8a13.107 13.107 0 0 1 9.527-9.529l.801-.2-.801-.2ZM64.199 49.65a9.101 9.101 0 0 1-6.617-6.616l-.14-.556-.139.556a9.1 9.1 0 0 1-6.618 6.615l-.554.14.554.139a9.103 9.103 0 0 1 6.618 6.618l.14.556.14-.556a9.103 9.103 0 0 1 6.616-6.618l.556-.139-.556-.14Z" fill="#319BE0"/><path d="M104.507 71.105h26.6V52.076a7.526 7.526 0 0 0-7.526-7.525H77.432a7.527 7.527 0 0 0-7.527 7.525v94.884a7.527 7.527 0 0 0 7.527 7.528h46.149a7.526 7.526 0 0 0 7.526-7.528v-32.587h-5.917l-13.548 13.318v-13.318h-7.135c-5.45 0-9.87-4.419-9.87-9.868v-23.53c0-5.45 4.42-9.87 9.87-9.87Z" fill="#3D5863"/><path d="M158.997 71.105h-54.49c-5.45 0-9.87 4.42-9.87 9.87v23.53c0 5.449 4.42 9.869 9.87 9.869h7.135v13.317l13.548-13.317h33.807c5.448 0 9.869-4.42 9.869-9.869v-23.53c0-5.45-4.421-9.87-9.869-9.87Z" fill="#319BE0"/><path d="m126.674 101.915-2.668-7.384.029-.575 12.043-5.645-4.437 8.57-.055.058-.815.841c-.677.697-1.584 1.624-2.503 2.55-.547.549-1.092 1.093-1.594 1.585Zm.711 1.956c.007.008.008.01.002.002l-.002-.002Z" stroke="#fff" stroke-width="5"/><mask id="a" fill="#fff"><path d="m126.268 97.469-.692 7.361s-.29 2.255 1.965 0c2.255-2.256 4.413-3.995 4.413-3.995"/></mask><path d="m126.268 97.469-.692 7.361s-.29 2.255 1.965 0c2.255-2.256 4.413-3.995 4.413-3.995" fill="#fff"/><path d="m125.576 104.83 4.959.637.011-.084.008-.085-4.978-.468ZM121.29 97l-.692 7.361 9.956.937.692-7.36L121.29 97Zm4.286 7.83c-4.96-.638-4.96-.636-4.96-.634l-.001.005-.001.008-.002.019-.005.04-.01.096a6.862 6.862 0 0 0-.026 1.011c.015.343.076 1.866 1.127 3.282a5.375 5.375 0 0 0 3.079 2.03 5.608 5.608 0 0 0 3.218-.208c1.356-.495 2.397-1.429 3.082-2.114l-7.072-7.07c-.164.163-.219.199-.175.166.025-.018.282-.21.739-.377a4.394 4.394 0 0 1 2.51-.129 4.636 4.636 0 0 1 2.648 1.739c.48.648.661 1.252.732 1.541.078.318.096.563.101.684a3.01 3.01 0 0 1-.011.426l-.006.059a.29.29 0 0 0-.004.031l-.002.016-.001.008-.001.004c0 .002 0 .004-4.959-.633Zm5.501 3.535a57.32 57.32 0 0 1 3.949-3.583l.056-.046a.053.053 0 0 1 .011-.009v-.001.001l-.001.001-3.138-3.893-3.138-3.893-.002.002-.003.002-.008.007a6.666 6.666 0 0 0-.115.094l-.31.256a66.854 66.854 0 0 0-4.373 3.992l7.072 7.07Z" fill="#fff" mask="url(#a)"/><path d="m139.259 101.354-.511 2.083c-2.11-1.65-6.015-4.339-8.622-6.107a513.366 513.366 0 0 0 4.625-4.213c1.689-1.559 3.408-3.175 4.734-4.487a43.588 43.588 0 0 0 1.693-1.75 11.113 11.113 0 0 0 .622-.744c.111-.146.45-.594.611-1.16h.001a2.59 2.59 0 0 0-.139-1.799c-.014-.029-.027-.057-.042-.085l1.338-.484c-.147.786-.364 1.848-.646 3.141a470.168 470.168 0 0 1-1.845 8.054c-.665 2.809-1.325 5.53-1.819 7.551Zm-10.615-13.292a2386.534 2386.534 0 0 0-7.213 4.534l-2.557-.834c.477-.188.99-.387 1.535-.598 2.357-.91 5.255-1.997 8.235-3.102Zm-13.23 5.154h.002-.002Z" fill="#fff" stroke="#fff" stroke-width="5"/><path d="M106.646 142.693H94.363a2.12 2.12 0 0 0-2.119 2.118v4.285c0 1.171.95 2.119 2.12 2.119h12.282c1.171 0 2.12-.948 2.12-2.119v-4.285a2.12 2.12 0 0 0-2.12-2.118ZM107.601 46.794h-14.19a.746.746 0 0 0-.746.744v1.507c0 .412.334.745.745.745h14.191a.745.745 0 0 0 .745-.745v-1.507a.745.745 0 0 0-.745-.744Z" fill="#01FFB3"/><path d="M104.505 71.105h22.275V59.743a7.526 7.526 0 0 0-7.526-7.525H81.757a7.527 7.527 0 0 0-7.528 7.525v73.066a7.527 7.527 0 0 0 7.528 7.527h37.497a7.527 7.527 0 0 0 7.526-7.527v-18.435h-1.592l-13.548 13.317v-13.317h-7.135c-5.45 0-9.869-4.42-9.869-9.869v-23.53c0-5.45 4.42-9.87 9.869-9.87Z" fill="#fff" fill-opacity=".12"/></svg>