<svg width="95" height="95" fill="none" xmlns="http://www.w3.org/2000/svg"><path fill-rule="evenodd" clip-rule="evenodd" d="M47.5 3.851a43.649 43.649 0 1 0 0 87.297 43.649 43.649 0 0 0 0-87.297ZM21.11 8.005a47.5 47.5 0 1 1 52.78 78.99 47.5 47.5 0 0 1-52.78-78.99Zm11.972 22.122c.363-.378.864-.59 1.387-.59h36.353a1.926 1.926 0 0 1 1.388 3.26l-9.006 9.357 9.006 9.357a1.926 1.926 0 0 1 0 2.67L61.918 64.874c-.363.377-.864.59-1.387.59H24.178a1.926 1.926 0 0 1-1.387-3.261l9.005-9.357-9.005-9.357a1.926 1.926 0 0 1 0-2.67l10.29-10.693Zm2.206 24.645-6.584 6.84h31.008l6.584-6.84H35.288Zm31.008-3.852H35.288l-6.584-6.84h31.008l6.584 6.84Zm-6.584-10.692 6.584-6.84H35.288l-6.584 6.84h31.008Z" fill="#12ECAB"/></svg>