<svg width="202" height="202" fill="none" xmlns="http://www.w3.org/2000/svg"><path d="M100.505 15.738c-46.813 0-84.767 37.953-84.767 84.768 0 46.814 37.954 84.768 84.767 84.768 46.817 0 84.769-37.954 84.769-84.768 0-46.815-37.952-84.768-84.769-84.768Z" fill="#E0E0E0" fill-opacity=".05"/><path d="M100.505 0C45.085 0 0 45.087 0 100.505c0 55.419 45.086 100.506 100.505 100.506s100.506-45.087 100.506-100.506C201.011 45.087 155.924 0 100.505 0Zm0 197.791c-53.643 0-97.285-43.643-97.285-97.286S46.862 3.22 100.505 3.22c53.643 0 97.286 43.642 97.286 97.285 0 53.643-43.643 97.286-97.286 97.286Z" fill="#E0E0E0" fill-opacity=".05"/><path d="M124.763 151.015a1.97 1.97 0 0 0-2.596-1.014c-.699.306-1.409.599-2.109.871a1.971 1.971 0 0 0 1.428 3.674 57.761 57.761 0 0 0 2.262-.935 1.97 1.97 0 0 0 1.015-2.596ZM134.251 142.684a54.243 54.243 0 0 1-4.303 3.113 1.97 1.97 0 0 0 1.078 3.623c.368 0 .741-.104 1.073-.32a58.394 58.394 0 0 0 4.616-3.34 1.972 1.972 0 0 0-2.464-3.076Zm12.541-10.613a1.97 1.97 0 0 0-2.755.419 54.694 54.694 0 0 1-3.355 4.119 1.97 1.97 0 1 0 2.931 2.635 58.542 58.542 0 0 0 3.598-4.417 1.971 1.971 0 0 0-.419-2.756ZM152.283 121.93a1.972 1.972 0 0 0-2.611.974 52.368 52.368 0 0 1-.991 2.055 1.972 1.972 0 0 0 3.514 1.787c.368-.725.726-1.467 1.063-2.205a1.97 1.97 0 0 0-.975-2.611ZM52.33 124.959a53.504 53.504 0 0 1-.991-2.055 1.972 1.972 0 0 0-3.586 1.636c.336.738.694 1.48 1.063 2.206a1.972 1.972 0 0 0 3.513-1.787ZM56.971 132.488a1.972 1.972 0 0 0-3.174 2.336 58.673 58.673 0 0 0 3.597 4.418c.39.433.927.652 1.466.652a1.97 1.97 0 0 0 1.465-3.288 54.434 54.434 0 0 1-3.354-4.118Zm14.087 13.307a54.23 54.23 0 0 1-4.302-3.114 1.971 1.971 0 0 0-2.465 3.076 58.406 58.406 0 0 0 4.616 3.341 1.97 1.97 0 0 0 2.727-.576 1.97 1.97 0 0 0-.576-2.727ZM80.951 150.872a54.75 54.75 0 0 1-2.108-.871 1.97 1.97 0 1 0-1.581 3.61c.75.328 1.51.643 2.262.935a1.967 1.967 0 0 0 2.55-1.123 1.97 1.97 0 0 0-1.123-2.551ZM153.258 76.47a57.418 57.418 0 0 0-1.064-2.206 1.97 1.97 0 1 0-3.513 1.788c.344.675.677 1.366.991 2.055a1.971 1.971 0 1 0 3.586-1.637ZM136.717 55.253a58.252 58.252 0 0 0-4.616-3.34 1.97 1.97 0 1 0-2.151 3.302 54.308 54.308 0 0 1 4.303 3.114 1.968 1.968 0 0 0 2.77-.305c.68-.85.544-2.09-.306-2.771Zm10.495 10.933a58.635 58.635 0 0 0-3.597-4.418 1.971 1.971 0 1 0-2.931 2.636 54.535 54.535 0 0 1 3.354 4.118 1.966 1.966 0 0 0 2.755.42 1.97 1.97 0 0 0 .419-2.756ZM123.748 47.4a58.86 58.86 0 0 0-2.262-.935 1.972 1.972 0 0 0-1.428 3.674c.7.272 1.41.565 2.109.871a1.97 1.97 0 1 0 1.581-3.61ZM82.075 47.588a1.97 1.97 0 0 0-2.55-1.123c-.753.292-1.515.606-2.263.934a1.97 1.97 0 0 0 1.58 3.61 54.727 54.727 0 0 1 2.11-.871 1.97 1.97 0 0 0 1.123-2.55ZM57.397 61.767a58.393 58.393 0 0 0-3.598 4.417 1.97 1.97 0 1 0 3.173 2.337 54.512 54.512 0 0 1 3.355-4.118 1.97 1.97 0 0 0-2.93-2.636Zm14.24-9.28a1.97 1.97 0 0 0-2.726-.576 58.227 58.227 0 0 0-4.617 3.34 1.97 1.97 0 1 0 2.465 3.076 54.212 54.212 0 0 1 4.303-3.113 1.971 1.971 0 0 0 .575-2.727ZM51.466 73.401a1.97 1.97 0 0 0-2.65.863 58.627 58.627 0 0 0-1.064 2.205 1.971 1.971 0 0 0 3.586 1.637c.315-.689.648-1.38.991-2.055a1.97 1.97 0 0 0-.863-2.65Z" fill="#3D5863"/><path d="M45.105 133.627a4.907 4.907 0 0 1-3.566-3.566l-.076-.3-.074.3a4.908 4.908 0 0 1-3.567 3.566l-.3.075.3.076a4.906 4.906 0 0 1 3.567 3.566l.074.3.076-.3a4.906 4.906 0 0 1 3.566-3.566l.3-.076-.3-.075ZM55.623 147.195a8.192 8.192 0 0 1-5.953-5.954l-.126-.5-.125.5a8.195 8.195 0 0 1-5.953 5.954l-.501.126.5.125a8.192 8.192 0 0 1 5.954 5.953l.125.5.126-.5a8.19 8.19 0 0 1 5.953-5.953l.501-.125-.501-.126Z" fill="#01FFB3"/><path d="M150.037 44.633a9.37 9.37 0 0 1-6.808-6.808l-.142-.572-.145.572a9.36 9.36 0 0 1-6.805 6.807l-.572.144.572.143a9.357 9.357 0 0 1 6.805 6.807l.145.571.142-.571a9.366 9.366 0 0 1 6.808-6.807l.572-.143-.572-.144Z" fill="#3D5863"/><path d="M100.504 74.918c-14.132 0-25.588 11.455-25.588 25.588 0 14.132 11.456 25.587 25.588 25.587 14.132 0 25.589-11.455 25.589-25.587 0-14.133-11.457-25.588-25.589-25.588Z" fill="#01FFB3"/><path d="M100.4 81.193c-10.608 0-19.208 8.598-19.208 19.207 0 10.608 8.6 19.208 19.208 19.208 10.608 0 19.208-8.6 19.208-19.208 0-10.609-8.6-19.207-19.208-19.207ZM164.54 91.749h-12.549a2.482 2.482 0 0 0-2.482 2.483v12.548a2.483 2.483 0 0 0 2.482 2.483h12.549a2.483 2.483 0 0 0 2.482-2.483V94.232a2.483 2.483 0 0 0-2.482-2.483ZM168.538 91.72a.758.758 0 1 1-1.516 0 .758.758 0 0 1 1.516 0ZM149.509 91.72a.758.758 0 1 1-1.516 0 .758.758 0 0 1 1.516 0ZM168.538 109.292a.758.758 0 1 1-1.516 0 .758.758 0 0 1 1.516 0ZM149.509 109.292a.758.758 0 1 1-1.516 0 .758.758 0 0 1 1.516 0Z" fill="#01FFB3"/><path d="M150.949 86.078v-3.095a.584.584 0 1 0-1.167 0v3.095a1.167 1.167 0 1 0 1.167 0ZM154.899 86.078v-3.095a.584.584 0 0 0-1.168 0v3.095a1.167 1.167 0 1 0 1.168 0ZM158.849 86.078v-3.096a.584.584 0 0 0-1.167 0v3.096a1.167 1.167 0 1 0 1.167 0ZM162.8 86.078v-3.095a.584.584 0 1 0-1.167 0v3.095a1.167 1.167 0 1 0 1.167 0ZM166.751 86.078v-3.095a.584.584 0 0 0-1.167 0v3.095a1.167 1.167 0 1 0 1.167 0ZM150.366 112.755a1.168 1.168 0 0 0-.584 2.178v3.095a.584.584 0 0 0 1.167 0v-3.095a1.167 1.167 0 0 0-.583-2.178ZM154.315 112.755a1.168 1.168 0 0 0-.584 2.178v3.096a.583.583 0 0 0 1.168 0v-3.096a1.167 1.167 0 0 0-.584-2.178ZM158.266 112.755a1.167 1.167 0 0 0-.583 2.178v3.095a.584.584 0 1 0 1.167 0v-3.095a1.167 1.167 0 0 0-.584-2.178ZM162.217 112.755a1.167 1.167 0 0 0-.584 2.178v3.095a.584.584 0 0 0 1.167 0v-3.095a1.167 1.167 0 0 0-.583-2.178ZM166.167 112.755a1.168 1.168 0 0 0-.583 2.178v3.095a.584.584 0 1 0 1.167 0v-3.095a1.167 1.167 0 0 0-.584-2.178ZM144.849 107.239c-.432 0-.808.235-1.01.583h-3.096a.585.585 0 0 0 0 1.168h3.096a1.165 1.165 0 0 0 2.177-.584c0-.645-.522-1.167-1.167-1.167ZM144.849 103.288c-.432 0-.808.235-1.01.584h-3.096a.584.584 0 0 0 0 1.167h3.096a1.165 1.165 0 0 0 2.177-.583c0-.645-.522-1.168-1.167-1.168ZM144.849 99.338c-.432 0-.808.235-1.01.584h-3.096a.584.584 0 0 0 0 1.167h3.096a1.166 1.166 0 1 0 1.01-1.751ZM144.849 95.389c-.432 0-.808.235-1.01.583h-3.096a.584.584 0 0 0 0 1.168h3.096a1.166 1.166 0 0 0 2.177-.585c0-.644-.522-1.166-1.167-1.166ZM144.849 91.438c-.432 0-.808.235-1.01.583h-3.096a.585.585 0 0 0 0 1.167h3.096a1.166 1.166 0 0 0 2.177-.583c0-.645-.522-1.168-1.167-1.168ZM175.788 107.822h-3.096a1.166 1.166 0 1 0-1.01 1.752c.432 0 .808-.235 1.01-.584h3.096a.584.584 0 0 0 0-1.168ZM175.788 103.872h-3.096a1.165 1.165 0 0 0-2.177.584 1.166 1.166 0 0 0 2.177.583h3.096a.584.584 0 1 0 0-1.167ZM175.788 99.922h-3.096a1.166 1.166 0 0 0-2.177.584 1.166 1.166 0 0 0 2.177.584h3.096a.584.584 0 1 0 0-1.168ZM175.788 95.972h-3.096a1.165 1.165 0 0 0-2.177.584 1.167 1.167 0 0 0 2.177.584h3.096a.585.585 0 0 0 0-1.168ZM175.788 92.02h-3.096a1.166 1.166 0 0 0-2.177.585 1.167 1.167 0 0 0 2.177.584h3.096a.584.584 0 0 0 0-1.168Z" fill="#319BE0"/><path d="M53.52 94.474c0 .018.003.034.004.052l-.004-.052Z" fill="#01FFB3"/><path d="M54.794 94.246a.641.641 0 0 0-.46-.14c-.262 1.898-.446 2.635-.446 2.635l-.018-.067v.005c.022.6.04 1.14.052 1.585a.58.58 0 0 0 .37-.035c.401-.196.769-1.775.904-2.284.134-.51.175-1.229-.402-1.7ZM37.838 97.903s-.4-1.569-.542-2.604c-.023-.169-.207-.61-.421-1.197a.635.635 0 0 0-.376.144c-.577.47-.536 1.189-.402 1.698.134.51.502 2.088.904 2.284.318.156.695-.073.84-.174v-.174c.01-.057.034-.223.063-.47-.037.313-.066.493-.066.493ZM49.688 105.976a5.575 5.575 0 0 1-.242-1.327c-.64.38-1.267.673-1.89.961-.533.247-2.476.306-3.138-.002a22.71 22.71 0 0 1-1.84-.975c-.028.439-.1.898-.243 1.343-.165.514-1.193.936-2.324 1.354.218.302 2.315 3.056 6.04 3.056 3.882 0 5.886-2.845 6.03-3.056-1.213-.38-2.2-.751-2.393-1.354Z" fill="#fff"/><path d="M53.87 96.678a13.135 13.135 0 0 1-.385-3.365c.017-.906.113-1.95.008-2.612-.105-.662-.453-1.742-1.254-1.811 0 0-3.568 3.997-11.218 3.495a9.484 9.484 0 0 1-1.99-.334c-.729.567-.992 1.283-.971 1.87a23.645 23.645 0 0 1-.22 3.958l-.003.916c0 2.033 1.252 3.348 3.11 4.764 1.036.791 2.525 1.608 3.471 2.048.662.307 2.605.249 3.138.002.999-.462 2.008-.938 3.06-1.761 1.723-1.348 3.325-2.874 3.325-4.589 0-.432-.028-1.387-.07-2.58Z" fill="#fff"/><path d="M53.859 85.395c-.883-1.075-1.986-1.623-3.205-1.473-.929-1.208-2.4-2.125-4.735-1.991-3.67.211-3.711 2.138-6.519 2.98-2.807.843-3.938-1.374-5.065-.612-1.127.762-.462 3.658 1.819 6.062-.19 1.977 1.077 4.475 1.141 4.938.142 1.036.542 2.604.542 2.604s.296-1.873.223-3.98c-.02-.588.242-1.304.971-1.871a9.486 9.486 0 0 0 1.99.334c7.651.502 11.218-3.495 11.218-3.495.801.07 1.15 1.149 1.254 1.81.105.663.01 1.707-.008 2.613-.037 1.883.403 3.428.403 3.428s.209-.835.499-3.016c.165-1.248 1.812-5.48-.528-8.33Z" fill="#3D5863"/><path d="m56.042 108.509-3.953-1.191s-2.008 3.068-6.038 3.068c-3.942 0-6.061-3.083-6.061-3.083l-4.12 1.218a5.164 5.164 0 0 0-3.696 4.95v5.623h27.54v-5.643a5.16 5.16 0 0 0-3.672-4.942Z" fill="#319BE0"/><path d="m114.316 35.316-1.676-1.458a1.203 1.203 0 0 0-1.697.117l-1.447 1.663a15.837 15.837 0 0 1 3.374 3.173l1.564-1.797c.436-.501.383-1.262-.118-1.698ZM90.068 33.975a1.203 1.203 0 0 0-1.697-.118l-1.675 1.459a1.203 1.203 0 0 0-.118 1.697l1.564 1.797a15.834 15.834 0 0 1 3.374-3.172l-1.448-1.663ZM103.617 28.914h-6.224c-.664 0-1.203.538-1.203 1.203v3.307a15.774 15.774 0 0 1 8.63 0v-3.307c0-.664-.539-1.203-1.203-1.203Z" fill="#3D5863"/><path d="M100.506 64.351c8.707 0 15.765-7.058 15.765-15.765s-7.058-15.766-15.765-15.766S84.74 39.88 84.74 48.586 91.8 64.35 100.506 64.35Z" fill="#2C255B"/><path d="M100.506 35.875c-7.02 0-12.711 5.69-12.711 12.711 0 7.02 5.69 12.71 12.711 12.71 7.02 0 12.711-5.69 12.711-12.71 0-7.02-5.691-12.711-12.711-12.711Z" fill="#3D5863"/><path d="m101.456 46.695-.751-7.656c-.025-.258-.4-.257-.425 0l-.731 7.659a2.118 2.118 0 1 0 1.907-.002Z" fill="#01FFB3"/><path d="M111.662 132.25H85.849v37.874h25.813a3.502 3.502 0 0 0 3.501-3.501v-30.871a3.501 3.501 0 0 0-3.501-3.502Z" fill="#319BE0"/><path d="M89.86 132.25H85.85v37.874h4.011V132.25Z" fill="#01FFB3"/><path d="M106.166 151.488c-.882-.75-2.262-1.347-4.14-1.788h-.073v-4.605a7.907 7.907 0 0 1 3.503 1.421l1.591-2.254c-1.6-1.093-3.298-1.706-5.094-1.837v-1.249h-1.568v1.225c-1.584.081-2.87.572-3.858 1.47-.988.897-1.482 2.053-1.482 3.465 0 1.413.429 2.479 1.286 3.197.858.718 2.208 1.298 4.054 1.739v4.752c-1.454-.23-2.867-.94-4.238-2.131l-1.788 2.131c1.78 1.551 3.788 2.441 6.026 2.669v1.788h1.567v-1.763c1.666-.082 3.005-.571 4.018-1.47 1.012-.898 1.519-2.061 1.519-3.49 0-1.429-.442-2.518-1.323-3.27Zm-5.781-2.229c-.914-.293-1.535-.599-1.862-.918-.327-.319-.49-.75-.49-1.298s.208-1.005.625-1.372c.417-.367.992-.583 1.727-.649v4.237Zm3.429 7.153c-.457.376-1.077.604-1.861.685v-4.408c.98.293 1.649.608 2.008.943.359.335.54.788.54 1.359 0 .572-.229 1.045-.687 1.421Z" fill="#fff"/><path d="M89.86 170.124v4.569l2.075-1.208 2.075 1.208v-4.569h-4.15ZM110.643 106.046l-3.448 3.666a.802.802 0 0 1-.584.253H90.264a.406.406 0 0 1-.367-.239.393.393 0 0 1 .073-.429l3.445-3.666a.802.802 0 0 1 .584-.253h16.346a.406.406 0 0 1 .374.236c.031.071.041.15.028.227a.402.402 0 0 1-.104.205Zm-3.448-7.385a.802.802 0 0 0-.584-.253H90.264a.403.403 0 0 0-.367.239.395.395 0 0 0 .073.43l3.445 3.667a.81.81 0 0 0 .584.253h16.346a.397.397 0 0 0 .366-.239.398.398 0 0 0-.074-.429l-3.442-3.668Zm-16.931-2.634h16.347a.796.796 0 0 0 .584-.252l3.448-3.667a.383.383 0 0 0 .089-.148.395.395 0 0 0-.387-.52H93.999a.803.803 0 0 0-.584.253L89.97 95.36a.396.396 0 0 0 .294.667Z" fill="#3D5863"/></svg>