<svg width="95" height="95" fill="none" xmlns="http://www.w3.org/2000/svg"><path fill-rule="evenodd" clip-rule="evenodd" d="M46.425.29a2.136 2.136 0 0 1 2.15 0l22.677 13.194a2.161 2.161 0 0 1 1.071 1.869v24.305l21.605 12.57A2.161 2.161 0 0 1 95 54.097v25.55c0 .77-.408 1.483-1.072 1.869L71.252 94.71a2.137 2.137 0 0 1-2.15 0L47.5 82.14 25.898 94.71a2.137 2.137 0 0 1-2.15 0L1.072 81.516A2.161 2.161 0 0 1 0 79.647v-25.55c0-.77.408-1.483 1.072-1.869l21.605-12.57V15.353c0-.77.408-1.483 1.071-1.869L46.425.29ZM24.823 43.397l-18.39 10.7 18.39 10.7 18.39-10.7-18.39-10.7Zm20.53 14.443L26.97 68.536v20.562l18.383-10.696V57.84Zm4.294 20.562L68.03 89.098V68.536L49.647 57.84v20.562Zm2.14-24.305 18.39 10.7 18.39-10.7-18.39-10.7-18.39 10.7Zm16.243-14.44v-20.56L49.647 29.791v20.562L68.03 39.658ZM45.353 50.355V29.792L26.97 19.096v20.562l18.383 10.696ZM29.11 15.353l18.39 10.7 18.39-10.7-18.39-10.7-18.39 10.7ZM90.707 57.84 72.323 68.536v20.562l18.384-10.696V57.84Zm-68.03 31.258V68.536L4.293 57.84v20.562l18.384 10.696Z" fill="#12ECAB"/></svg>