<svg width="501" height="364" fill="none" xmlns="http://www.w3.org/2000/svg"><path opacity=".1" d="M460.709 131.447V80.893C460.709 26.97 433.85 0 380.128 0v.05c-66.258 0-109.176 20.028-131.197 61.218-18.604 34.808-18.626 78.522-18.64 120.795-.036 82.169-.065 141.529-109.41 141.529v-.036c-26.86 0-40.292-13.48-40.292-40.443v-50.559c0-29.657-13.43-46.515-40.3-50.555 26.87-4.04 40.3-20.897 40.3-50.552V80.893c0-26.963 13.431-40.444 40.292-40.444v-.013h87.795c.12-.222.212-.449.333-.664 8.178-15.303 18.378-28.544 30.532-39.744h-118.66V0c-.27 0-.512.028-.774.028h-6.779V.25C64.675 2.735 40.29 29.577 40.29 80.893v50.554c0 20.221-13.43 30.33-40.29 30.33v40.444c26.86 0 40.29 10.11 40.29 30.333v50.559C40.29 337.03 67.159 364 120.88 364v-.043c66.165 0 109.019-20.008 131.003-61.177 18.579-34.779 18.6-78.464 18.613-120.702.04-82.24.069-141.663 109.631-141.663v.034c26.86 0 40.291 13.48 40.291 40.444v50.554c0 29.655 13.431 46.512 40.29 50.552-26.859 4.04-40.29 20.898-40.29 50.555v50.559c0 26.963-13.431 40.443-40.291 40.443h-87.953c-.128.23-.236.478-.353.713-8.165 15.277-18.346 28.502-30.461 39.688h118.767V364c53.722 0 80.581-26.97 80.581-80.887v-50.559c0-20.223 13.431-30.333 40.291-30.333v-40.444c-26.86 0-40.291-10.109-40.291-30.33Z" fill="url(#a)"/><defs><linearGradient id="a" x1="145.688" y1="26.543" x2="507.554" y2="472.437" gradientUnits="userSpaceOnUse"><stop stop-color="#00FFB3"/><stop offset="1" stop-color="#4475F2"/></linearGradient></defs></svg>