<svg width="183" height="27" fill="none" xmlns="http://www.w3.org/2000/svg"><g clip-path="url(#a)"><mask id="b" style="mask-type:luminance" maskUnits="userSpaceOnUse" x="0" y="0" width="183" height="27"><path d="M0 0h183v27H0V0Z" fill="#fff"/></mask><g mask="url(#b)"><path d="m30.745 21.288-5.02 5.344a1.16 1.16 0 0 1-.85.368H1.079a.586.586 0 0 1-.534-.348.576.576 0 0 1 .107-.625l5.014-5.344a1.161 1.161 0 0 1 .85-.368H30.31a.584.584 0 0 1 .543.343.573.573 0 0 1-.11.63Zm-5.02-10.764a1.174 1.174 0 0 0-.85-.368H1.079a.586.586 0 0 0-.534.348.575.575 0 0 0 .107.625l5.014 5.347a1.171 1.171 0 0 0 .85.368H30.31a.587.587 0 0 0 .532-.349.576.576 0 0 0-.107-.624l-5.011-5.347ZM1.079 6.685h23.796a1.168 1.168 0 0 0 .85-.368l5.02-5.344A.576.576 0 0 0 30.31 0H6.515a1.169 1.169 0 0 0-.85.369L.653 5.712a.578.578 0 0 0 .427.973Z" fill="url(#c)"/><path d="M59.755 11.42h-12.73V7.256h16.039V3.094H46.982a4.21 4.21 0 0 0-2.965 1.2 4.153 4.153 0 0 0-1.242 2.932v4.218a4.126 4.126 0 0 0 1.24 2.935 4.187 4.187 0 0 0 2.967 1.203H59.73v4.162H43.079v4.163h16.676a4.205 4.205 0 0 0 2.329-.688 4.16 4.16 0 0 0 1.55-1.856 4.125 4.125 0 0 0 .328-1.588v-4.219a4.13 4.13 0 0 0-1.24-2.934 4.188 4.188 0 0 0-2.967-1.203Zm24.663-8.326H71.639a4.207 4.207 0 0 0-2.334.684 4.162 4.162 0 0 0-1.556 1.857 4.125 4.125 0 0 0-.328 1.59v12.55c.003.547.114 1.087.328 1.59a4.162 4.162 0 0 0 1.556 1.858c.693.452 1.505.69 2.334.684h12.779a4.21 4.21 0 0 0 2.965-1.201 4.15 4.15 0 0 0 1.242-2.931V7.225a4.124 4.124 0 0 0-1.242-2.93 4.184 4.184 0 0 0-2.965-1.2Zm-.031 16.65H71.67V7.257h12.711l.006 12.487Zm44.789-16.65h-12.464a4.209 4.209 0 0 0-2.965 1.2 4.149 4.149 0 0 0-1.242 2.932v16.68h4.249V17.07h12.408v6.838h4.249V7.226a4.107 4.107 0 0 0-.329-1.595 4.18 4.18 0 0 0-2.294-2.238 4.21 4.21 0 0 0-1.612-.299Zm-.031 9.813h-12.408v-5.65h12.408v5.65Zm49.648-9.813h-12.464a4.209 4.209 0 0 0-2.966 1.2 4.13 4.13 0 0 0-1.241 2.931v16.682h4.249v-6.838h12.38v6.838H183V7.226a4.13 4.13 0 0 0-1.242-2.931 4.2 4.2 0 0 0-2.965-1.2Zm-.042 9.813h-12.408v-5.65h12.408v5.65Zm-24.646 6.837h-1.7l-6.076-14.906a2.78 2.78 0 0 0-1.029-1.266 2.815 2.815 0 0 0-1.566-.478h-3.77a2.803 2.803 0 0 0-1.553.459 2.773 2.773 0 0 0-1.252 2.297v18.057h4.249V7.257h1.7l6.074 14.906c.211.513.572.952 1.037 1.26.464.31 1.01.474 1.569.472h3.77a2.803 2.803 0 0 0 1.978-.801c.525-.517.823-1.22.827-1.955V3.094h-4.258v16.65ZM96.627 3.094h-4.249v16.681a4.128 4.128 0 0 0 1.246 2.936 4.187 4.187 0 0 0 2.975 1.196h12.748v-4.163h-12.72V3.094Z" fill="#fff"/></g></g><defs><linearGradient id="c" x1="3.062" y1="27.644" x2="27.813" y2="-.461" gradientUnits="userSpaceOnUse"><stop offset=".08" stop-color="#9945FF"/><stop offset=".3" stop-color="#8752F3"/><stop offset=".5" stop-color="#5497D5"/><stop offset=".6" stop-color="#43B4CA"/><stop offset=".72" stop-color="#28E0B9"/><stop offset=".97" stop-color="#19FB9B"/></linearGradient><clipPath id="a"><path fill="#fff" d="M0 0h183v27H0z"/></clipPath></defs></svg>