<svg width="295" height="41" fill="none" xmlns="http://www.w3.org/2000/svg"><path d="M290.767 12.85H295l-9.619 23.7c-.513 1.283-1.193 2.245-2.039 2.886-.821.642-2.014.962-3.578.962h-3.348v-3.386h4.694l1.809-4.578-8.003-19.583h4.386l3.155 8.31 2.462 6.81h.231l2.462-6.81 3.155-8.31ZM253.271 29.317h5.27v-13.08h-5.27V12.85h9.464v5.27h.231c.18-.692.436-1.359.769-2a5.816 5.816 0 0 1 1.27-1.654c.513-.488 1.142-.873 1.885-1.155.744-.307 1.616-.461 2.617-.461h2.385v4h-3.924c-1.539 0-2.796.463-3.771 1.386-.975.898-1.462 2.116-1.462 3.655v7.425h7.195v3.386h-16.659v-3.386ZM239.242 33.165c-1.513 0-2.873-.244-4.078-.731-1.206-.488-2.219-1.18-3.04-2.078-.821-.898-1.449-1.975-1.885-3.232-.436-1.282-.654-2.719-.654-4.309 0-1.59.218-3.027.654-4.309.462-1.282 1.09-2.372 1.885-3.27a8.16 8.16 0 0 1 2.963-2.116c1.154-.488 2.436-.731 3.847-.731 1.385 0 2.642.243 3.771.73a7.895 7.895 0 0 1 2.885 2.001c.795.872 1.398 1.911 1.808 3.117.437 1.205.655 2.539.655 4.001v1.578h-14.236v.654c0 1.564.487 2.847 1.462 3.847.975.975 2.321 1.462 4.04 1.462 1.282 0 2.373-.27 3.27-.808a6.634 6.634 0 0 0 2.232-2.232l2.616 2.309c-.667 1.154-1.693 2.129-3.078 2.924-1.359.795-3.065 1.193-5.117 1.193Zm-.308-17.583c-.744 0-1.436.128-2.077.385a4.676 4.676 0 0 0-1.616 1.115 5.176 5.176 0 0 0-1.039 1.655 5.638 5.638 0 0 0-.385 2.116v.27h9.965v-.385c0-1.565-.449-2.81-1.347-3.732-.872-.95-2.039-1.424-3.501-1.424ZM216.942 32.703c-1.744 0-3.027-.462-3.847-1.385-.821-.95-1.232-2.168-1.232-3.655V16.236h-6.117V12.85h4.348c.744 0 1.269-.141 1.577-.423.308-.308.462-.847.462-1.616V5.848h3.924v7.002h8.464v3.386h-8.464v13.08h8.464v3.387h-7.579ZM192.719 33.165c-2.155 0-4.014-.346-5.579-1.04-1.539-.692-2.783-1.615-3.732-2.77l2.578-2.308c.872.95 1.847 1.68 2.924 2.193 1.103.488 2.398.731 3.886.731 1.359 0 2.449-.23 3.27-.692.847-.462 1.27-1.18 1.27-2.155 0-.41-.077-.756-.231-1.038a1.88 1.88 0 0 0-.654-.693 3.568 3.568 0 0 0-1-.423 7.65 7.65 0 0 0-1.155-.231l-3.154-.5c-.77-.103-1.552-.27-2.347-.5a8.21 8.21 0 0 1-2.155-.962 5.581 5.581 0 0 1-1.539-1.655c-.385-.667-.577-1.513-.577-2.539 0-2.026.769-3.565 2.308-4.617 1.565-1.051 3.617-1.577 6.156-1.577 1.847 0 3.437.282 4.771.846 1.359.539 2.488 1.295 3.386 2.27l-2.347 2.462c-.513-.59-1.244-1.128-2.193-1.615-.949-.514-2.206-.77-3.771-.77-2.795 0-4.193.885-4.193 2.655 0 .846.295 1.436.885 1.77.615.307 1.333.512 2.154.615l3.155.5c.795.129 1.577.295 2.347.5.795.206 1.5.526 2.116.962a4.65 4.65 0 0 1 1.539 1.616c.41.667.616 1.514.616 2.54 0 2-.783 3.578-2.347 4.732-1.539 1.128-3.668 1.693-6.387 1.693ZM176.998 32.703c-1.206 0-2.116-.308-2.732-.923-.59-.616-.949-1.424-1.077-2.424h-.193c-.384 1.205-1.09 2.141-2.116 2.808-1 .667-2.282 1-3.847 1-2.026 0-3.642-.525-4.848-1.577-1.205-1.077-1.808-2.552-1.808-4.424 0-1.924.705-3.386 2.116-4.386 1.436-1.026 3.629-1.54 6.579-1.54h3.809V19.7c0-2.693-1.423-4.04-4.271-4.04-1.282 0-2.321.256-3.116.77a6.35 6.35 0 0 0-2.001 1.962l-2.5-2.04c.564-1.077 1.513-2 2.847-2.77 1.333-.795 3.052-1.192 5.155-1.192 2.514 0 4.489.602 5.925 1.808 1.437 1.206 2.155 2.95 2.155 5.232v9.965h2.501v3.309h-2.578Zm-8.772-2.616c1.359 0 2.475-.308 3.347-.924.872-.615 1.308-1.41 1.308-2.385v-2.886h-3.732c-3.027 0-4.54.911-4.54 2.732v.77c0 .897.321 1.577.962 2.039.641.436 1.526.654 2.655.654ZM152.12 19.852l.115-8.08h-.308l-5.386 13.813-5.386-13.812h-.308l.115 8.08v12.85h-3.809V5.848h5.271l4.117 10.657h.269l4.156-10.657h4.963v26.855h-3.809v-12.85ZM114.815 29.318h6.58v-21.7h-6.58V4.232h10.773v25.086h6.579v3.385h-17.352v-3.385ZM100.402 33.165c-1.462 0-2.783-.244-3.963-.731a8.373 8.373 0 0 1-2.963-2.078c-.795-.898-1.41-1.988-1.846-3.27-.436-1.283-.654-2.719-.654-4.31 0-1.59.218-3.026.654-4.308.436-1.283 1.051-2.373 1.846-3.27a8.373 8.373 0 0 1 2.963-2.078c1.18-.488 2.5-.731 3.963-.731 1.462 0 2.77.243 3.924.73 1.18.488 2.167 1.18 2.963 2.078.82.898 1.449 1.988 1.885 3.27.436 1.283.654 2.72.654 4.31 0 1.59-.218 3.026-.654 4.309-.436 1.282-1.065 2.372-1.885 3.27-.796.898-1.783 1.59-2.963 2.078-1.154.487-2.462.73-3.924.73Zm0-3.31c1.539 0 2.757-.46 3.655-1.384.923-.95 1.385-2.347 1.385-4.194v-3c0-1.848-.462-3.233-1.385-4.156-.898-.949-2.116-1.424-3.655-1.424-1.54 0-2.77.475-3.694 1.424-.897.923-1.346 2.308-1.346 4.155v3.001c0 1.847.449 3.245 1.346 4.194.924.923 2.155 1.385 3.694 1.385ZM77.102 33.165c-2.334 0-4.296-.41-5.887-1.231-1.59-.82-2.898-1.911-3.924-3.27l2.77-2.655c1.026 1.231 2.116 2.142 3.27 2.732 1.155.564 2.463.846 3.925.846 1.693 0 2.988-.385 3.886-1.154.923-.77 1.385-1.873 1.385-3.309 0-1.154-.334-2.04-1-2.655-.667-.641-1.809-1.103-3.425-1.385l-2.924-.462c-1.282-.205-2.36-.538-3.232-1-.872-.487-1.577-1.052-2.116-1.693a6.779 6.779 0 0 1-1.192-2.193 9.479 9.479 0 0 1-.347-2.578c0-2.539.821-4.463 2.463-5.77 1.641-1.334 3.898-2.001 6.771-2.001 2.129 0 3.937.346 5.425 1.039 1.513.666 2.732 1.615 3.655 2.847l-2.693 2.693a8.62 8.62 0 0 0-2.655-2.155c-1-.564-2.244-.846-3.732-.846-1.59 0-2.809.346-3.655 1.039-.82.667-1.231 1.654-1.231 2.962 0 1.103.32 1.975.962 2.616.667.616 1.834 1.065 3.5 1.347l2.848.5c2.411.436 4.168 1.321 5.271 2.655 1.103 1.308 1.654 2.911 1.654 4.81 0 1.23-.218 2.359-.654 3.385a6.595 6.595 0 0 1-1.885 2.616c-.82.718-1.847 1.283-3.078 1.693-1.205.385-2.59.577-4.155.577Z" fill="#fff"/><path d="M50.577 14.445V8.889C50.577 2.964 47.628 0 41.73 0v.006c-7.274 0-11.986 2.2-14.403 6.727-2.043 3.825-2.045 8.628-2.046 13.274-.005 9.03-.008 15.553-12.012 15.553v-.004c-2.948 0-4.423-1.482-4.423-4.445v-5.556c0-3.259-1.474-5.111-4.424-5.555 2.95-.444 4.424-2.297 4.424-5.555V8.889c0-2.963 1.475-4.444 4.423-4.444v-.001h9.639c.013-.025.023-.05.036-.073A16.387 16.387 0 0 1 26.297.003H13.27V0c-.03 0-.056.003-.085.003h-.744v.024C7.1.301 4.423 3.25 4.423 8.89v5.556c0 2.222-1.474 3.333-4.423 3.333v4.444c2.949 0 4.423 1.111 4.423 3.333v5.556c0 5.925 2.95 8.889 8.847 8.889v-.005c7.264 0 11.968-2.198 14.382-6.722 2.04-3.822 2.042-8.623 2.043-13.264.005-9.038.008-15.568 12.036-15.568v.004c2.948 0 4.423 1.481 4.423 4.444v5.556c0 3.258 1.474 5.111 4.423 5.555-2.949.444-4.423 2.296-4.423 5.555v5.556c0 2.963-1.475 4.445-4.423 4.445h-9.656c-.014.025-.026.052-.039.078a16.415 16.415 0 0 1-3.344 4.361h13.039V40c5.897 0 8.846-2.964 8.846-8.889v-5.556c0-2.222 1.474-3.333 4.423-3.333v-4.444c-2.949 0-4.423-1.111-4.423-3.333Z" fill="url(#a)"/><defs><linearGradient id="a" x1="15.994" y1="2.917" x2="55.767" y2="51.877" gradientUnits="userSpaceOnUse"><stop stop-color="#00FFB3"/><stop offset="1" stop-color="#4475F2"/></linearGradient></defs></svg>