<svg width="190" height="190" fill="none" xmlns="http://www.w3.org/2000/svg"><path d="M187.5 95c0 51.086-41.414 92.5-92.5 92.5S2.5 146.086 2.5 95 43.914 2.5 95 2.5s92.5 41.414 92.5 92.5Z" fill="url(#a)" stroke="#fff" stroke-width="5"/><path d="m77.876 132.146-11.047-30.578.302-6.05L121.8 69.895l-21.405 41.345-.713.739a1042.14 1042.14 0 0 1-10.418 10.645c-2.895 2.914-5.82 5.81-8.106 7.971a75.56 75.56 0 0 1-2.714 2.469 7.767 7.767 0 0 1-.568-.918Zm1.127 1.533-.017-.011.017.011Z" fill="#C8DAEA" stroke="#fff" stroke-width="5"/><mask id="b" fill="#fff"><path d="m79.25 109.945-2.163 22.995s-.906 7.046 6.138 0 13.787-12.479 13.787-12.479"/></mask><path d="m79.25 109.945-2.163 22.995s-.906 7.046 6.138 0 13.787-12.479 13.787-12.479" fill="#A9C6D8"/><path d="m77.087 132.94 4.959.638.01-.085.009-.085-4.978-.468Zm-2.815-23.463-2.163 22.995 9.956.936 2.163-22.994-9.956-.937Zm2.815 23.463c-4.96-.637-4.96-.635-4.96-.633v.004a.282.282 0 0 0-.004.031 15.724 15.724 0 0 0-.02.185 11.657 11.657 0 0 0-.042 1.632c.032.717.166 2.689 1.44 4.404a6.15 6.15 0 0 0 3.535 2.339c1.517.359 2.909.095 3.971-.292 1.971-.719 3.872-2.252 5.754-4.135l-7.072-7.07c-.762.762-1.33 1.247-1.728 1.542-.417.309-.53.323-.38.268.157-.057.822-.266 1.757-.044a3.843 3.843 0 0 1 2.19 1.43c.37.498.477.915.5 1.008.03.121.025.16.022.094a1.65 1.65 0 0 1 .002-.167l.002-.028-.002.02-.003.021-.001.013-.001.007v.004c0 .002-.001.005-4.96-.633Zm9.674 3.535a190.205 190.205 0 0 1 9.287-8.649 179.233 179.233 0 0 1 3.83-3.25 24.842 24.842 0 0 1 .259-.212l.011-.009.002-.001-3.138-3.893-3.138-3.893v.001l-.002.001-.006.005a.17.17 0 0 0-.018.015l-.066.053-.242.198c-.21.171-.512.42-.895.74-.767.64-1.858 1.563-3.172 2.71a199.743 199.743 0 0 0-9.784 9.114l7.072 7.07Z" fill="#fff" mask="url(#b)"/><path d="m42.534 92.142.005-.003.03-.019a8.29 8.29 0 0 1 .415-.23c.274-.142.635-.317 1.085-.525.9-.414 2.098-.931 3.56-1.54 2.922-1.214 6.834-2.762 11.404-4.526 9.138-3.528 20.849-7.9 32.41-12.163a6270.001 6270.001 0 0 1 31.468-11.5 7112.238 7112.238 0 0 1 13.118-4.742l.752-.27.193-.07.029-.01.038-.012a8.949 8.949 0 0 1 1.037-.247c.321-.056.629-.089.891-.089.195 0 .306.018.351.028.087.406.123.822.106 1.238l-.002.036v.037c-.004.295-.022.51-.05.832-.021.254-.049.574-.079 1.053v.003c-.122 1.972-1.193 7.527-2.826 15.041-1.609 7.405-3.706 16.462-5.788 25.255a3448.081 3448.081 0 0 1-7.554 31.215l-.521 2.106-.137.553-.035.141-.005.019a3.715 3.715 0 0 1-.107.301c-.097.24-.247.55-.454.847-.409.587-.894.949-1.603.977a3.933 3.933 0 0 1-2.861-1.11l-.054-.052-.057-.049c-6.466-5.562-27.231-19.611-34.604-24.561l.325-.29a1728.363 1728.363 0 0 0 19.134-17.364c5.263-4.86 10.58-9.857 14.657-13.891 2.035-2.014 3.787-3.812 5.076-5.245a30.538 30.538 0 0 0 1.624-1.933c.347-.46.856-1.17 1.069-1.917a2.772 2.772 0 0 0-.143-1.931 2.764 2.764 0 0 0-1.343-1.34c-.89-.415-1.77-.288-2.314-.124l-.07.021-.068.026c-.385.141-.907.42-1.369.675-.531.294-1.21.684-2.008 1.153-1.599.94-3.727 2.224-6.206 3.738A2276.947 2276.947 0 0 0 93.21 82.736a7255.954 7255.954 0 0 0-28.344 17.808l-22.619-7.37a1.637 1.637 0 0 1-.4-.291.59.59 0 0 1-.076-.092.484.484 0 0 1 .012-.06c.088-.09.294-.272.75-.588Zm-.764.674v-.011.01Z" fill="#fff" stroke="#fff" stroke-width="5"/><defs><linearGradient id="a" x1="95" y1="190" x2="95" y2="0" gradientUnits="userSpaceOnUse"><stop stop-color="#1D93D2"/><stop offset="1" stop-color="#38B0E3"/></linearGradient></defs></svg>